<svg viewBox="0 0 340 115" height="115" width="340" style="width: 340px; height: 115px; position: absolute; top: 50%; left: 50%; transform: translate(-50%, -50%) scale(0.536471); z-index: 0; cursor: pointer;" xmlns="http://www.w3.org/2000/svg" xmlns:xlink="http://www.w3.org/1999/xlink"><defs id="SvgjsDefs8700"></defs><g id="SvgjsG8701" featurekey="rootContainer" transform="matrix(1,0,0,1,0,0)" fill="#000000">    <rect width="340" height="115"></rect></g><g id="SvgjsG8702" featurekey="4K7G0D-0" transform="matrix(3.125,0,0,3.125,10,8)" fill="#d72323"><g xmlns="http://www.w3.org/2000/svg" display="none"><rect x="-27.333" y="-18.667" display="inline" fill="#d72323" width="473.333" height="236"></rect></g><g xmlns="http://www.w3.org/2000/svg" display="none"><g display="inline"><rect x="0" fill="#d72323" width="32" height="32"></rect></g><g display="inline"><circle fill="#d72323" cx="16" cy="16" r="8.5"></circle></g><g display="inline"><rect x="2.812" y="12.062" fill="#d72323" width="26.375" height="7.875"></rect></g></g><g xmlns="http://www.w3.org/2000/svg"><g><path d="M32,0H0v32h32V0z M29.188,19.938h-5.658C22.109,22.648,19.272,24.5,16,24.5s-6.109-1.852-7.529-4.562H2.812v-7.875h5.658    C9.891,9.352,12.728,7.5,16,7.5s6.109,1.852,7.529,4.562h5.658V19.938z"></path></g></g><g xmlns="http://www.w3.org/2000/svg" display="none"><g display="inline"><path fill="#d72323" d="M31,1v30H1V1H31 M32,0H0v32h32V0L32,0z"></path></g><g display="inline"><path fill="#d72323" d="M16,8.5c2.796,0,5.342,1.543,6.643,4.027l0.281,0.536h0.605h4.658v5.875h-4.658h-0.605l-0.281,0.536    C21.342,21.957,18.796,23.5,16,23.5s-5.342-1.543-6.643-4.027l-0.281-0.536H8.471H3.812v-5.875h4.658h0.605l0.281-0.536    C10.658,10.043,13.204,8.5,16,8.5 M16,7.5c-3.272,0-6.109,1.852-7.529,4.562H2.812v7.875h5.658C9.891,22.648,12.728,24.5,16,24.5    s6.109-1.852,7.529-4.562h5.658v-7.875h-5.658C22.109,9.352,19.272,7.5,16,7.5L16,7.5z"></path></g></g><g xmlns="http://www.w3.org/2000/svg" display="none"><g display="inline"><rect x="0.5" y="0.5" fill="#d72323" width="31" height="31"></rect><g><path d="M31,1v30H1V1H31 M32,0H0v32h32V0L32,0z"></path></g></g><g display="inline"><path fill="#d72323" d="M16,23.25c-2.703,0-5.164-1.491-6.422-3.893L9.438,19.09H4.476v-6.18h4.962l0.14-0.268    C10.836,10.241,13.297,8.75,16,8.75s5.164,1.491,6.423,3.892l0.14,0.268h4.961v6.18h-4.962l-0.141,0.268    C21.164,21.759,18.703,23.25,16,23.25z"></path><g><path d="M16,9.25c2.516,0,4.808,1.389,5.979,3.624l0.281,0.536h0.605h4.159v5.18h-4.159H22.26l-0.281,0.536     C20.807,21.361,18.516,22.75,16,22.75c-2.516,0-4.807-1.389-5.979-3.624L9.74,18.59H9.135H4.976v-5.18h4.159H9.74l0.281-0.536     C11.192,10.639,13.484,9.25,16,9.25 M16,8.25c-2.984,0-5.57,1.689-6.865,4.16H3.976v7.18h5.159     c1.295,2.471,3.881,4.16,6.865,4.16c2.984,0,5.57-1.689,6.865-4.16h5.159v-7.18h-5.159C21.57,9.939,18.984,8.25,16,8.25L16,8.25z     "></path></g></g></g></g><g id="SvgjsG8703" featurekey="wPuqcM-0" transform="matrix(3.984063684470132,0,0,3.984063684470132,125.21912243878607,-3.346611823175259)" fill="#eeeeee"><path d="M8.92 12.24 c1.48 0.4 2.88 1.72 2.88 3.66 c0 2.54 -1.6 4.1 -5.08 4.1 l-5.52 0 l0 -14 l5.22 0 c2.9 0 4.36 1.64 4.36 3.52 c0 1.48 -0.96 2.32 -1.86 2.72 z M6.14 8.56 l-2.02 0 l0 2.82 l2.02 0 c1.24 0 1.74 -0.58 1.74 -1.42 c0 -0.9 -0.58 -1.4 -1.74 -1.4 z M6.56 17.44 c1.6 0 2.32 -0.66 2.32 -1.9 c0 -1.06 -0.72 -1.8 -2.44 -1.8 l-2.32 0 l0 3.7 l2.44 0 z M18.66 9.42 c2.36 0 5.44 1.78 5.44 5.42 s-3.08 5.36 -5.44 5.36 s-5.46 -1.72 -5.46 -5.36 s3.1 -5.42 5.46 -5.42 z M18.66 11.96 c-1.3 0 -2.68 0.98 -2.68 2.88 c0 1.84 1.38 2.82 2.68 2.82 c1.28 0 2.68 -0.98 2.68 -2.82 c0 -1.9 -1.4 -2.88 -2.68 -2.88 z M28.7 5.859999999999999 l0 14.14 l-2.86 0 l0 -14.14 l2.86 0 z M35.52 17.6 c0.54 0 0.94 -0.06 1.38 -0.22 l0 2.4 c-0.44 0.2 -1.12 0.34 -2.12 0.34 c-1.62 0 -2.98 -0.56 -2.98 -3.5 l0 -4.66 l-1.46 0 l0 -2.36 l1.46 0 l0 -2.44 l2.86 0 l0 2.44 l2.22 0 l0 2.36 l-2.22 0 l0 4.64 c0 0.48 0.14 1 0.86 1 z M43.72 12.719999999999999 c-0.32 -0.74 -0.78 -1.02 -1.34 -1.02 c-0.52 0 -1 0.32 -1 0.78 c0 0.44 0.28 0.72 0.84 0.92 l1.26 0.46 c1.52 0.54 3 1.1 3 3.12 c0 2.08 -2.06 3.26 -4.16 3.26 c-1.9 0 -3.7 -1.12 -4.12 -2.94 l2.26 -0.7 c0.26 0.7 0.82 1.36 1.86 1.36 c0.74 0 1.3 -0.48 1.3 -1 c0 -0.34 -0.24 -0.64 -0.86 -0.88 l-1.2 -0.42 c-2.04 -0.74 -2.98 -1.8 -2.98 -3.22 c0 -1.88 1.74 -3.02 3.68 -3.02 c1.96 0 3.26 1.06 3.86 2.68 z M49.66 5.92 c0.92 0 1.68 0.72 1.68 1.5 c0 0.76 -0.46 1.24 -1.36 2.16 l-0.94 0.98 l2.36 0 l0 0.64 l-3.36 0 l0 -0.64 l1.36 -1.38 c0.88 -0.92 1.18 -1.2 1.18 -1.76 c0 -0.5 -0.44 -0.88 -0.92 -0.88 c-0.46 0 -0.94 0.32 -0.94 1 l0 0.28 l-0.74 0 l0 -0.28 c0 -0.96 0.78 -1.62 1.68 -1.62 z"></path></g><g id="SvgjsG8704" featurekey="Li3fkV-0" transform="matrix(0.6280779360263483,0,0,0.6280779360263483,129.3593603674873,83.5582583852823)" fill="#eeeeee"><path d="M8.34 5.48 q3.2 -0.02 5.1 1.96 l-0.96 1 q-0.6 -0.74 -1.77 -1.25 t-2.37 -0.51 q-2.66 0 -4.32 1.76 t-1.68 4.48 q0 2.7 1.64 4.44 t4.38 1.8 q2.6 0 3.94 -0.84 l0 -4.76 l-3.4 0 l0 -1.2 l4.72 0 l0 6.72 q-2.3 1.28 -5.28 1.28 q-3.2 0 -5.23 -2.09 t-2.09 -5.35 q0.02 -3.28 2.06 -5.34 t5.26 -2.1 z M35.944 12.08 q1.54 0 2.38 -0.69 t0.84 -1.83 t-0.82 -1.82 t-2.44 -0.7 l-2.86 0 l0 5.04 l2.9 0 z M35.544000000000004 5.84 q4.9 0 4.94 3.72 q0 3.14 -3.62 3.64 l4.12 6.8 l-1.5 0 l-3.98 -6.72 l-2.46 0 l0 6.72 l-1.32 0 l0 -14.16 l3.82 0 z M59.46800000000001 15.04 l6.5 0 l-3.2 -7.76 z M63.50800000000001 5.84 l5.96 14.16 l-1.48 0 l-1.54 -3.76 l-7.5 0 l-1.6 3.76 l-1.38 0 l6.18 -14.16 l1.36 0 z M90.11200000000002 12.08 q1.28 0 2.1 -0.63 t0.84 -1.87 q0 -1.16 -0.82 -1.85 t-2.18 -0.69 l-3 0 l0 5.04 l3.06 0 z M89.77200000000002 5.84 q2.16 0 3.36 0.96 t1.24 2.78 q0 1.7 -1.16 2.69 t-3.02 1.01 l-3.14 0 l0 6.72 l-1.32 0 l0 -14.16 l4.04 0 z M112.75600000000001 5.84 l0 6.24 l7.92 0 l0 -6.24 l1.32 0 l0 14.16 l-1.32 0 l0 -6.72 l-7.92 0 l0 6.72 l-1.32 0 l0 -14.16 l1.32 0 z M161.36400000000003 5.84 l5.16 11.88 l5.16 -11.88 l1.88 0 l0 14.16 l-1.32 0 l0 -12.48 l-0.04 0 l-5.4 12.48 l-0.58 0 l-5.48 -12.48 l-0.04 0 l0 12.48 l-1.32 0 l0 -14.16 l1.98 0 z M193.18800000000002 15.04 l6.5 0 l-3.2 -7.76 z M197.228 5.84 l5.96 14.16 l-1.48 0 l-1.54 -3.76 l-7.5 0 l-1.6 3.76 l-1.38 0 l6.18 -14.16 l1.36 0 z M220.77200000000002 5.84 l0 6.24 l0.12 0 l6.86 -6.24 l1.82 0 l-7.16 6.48 l7.56 7.68 l-1.9 0 l-7.18 -7.32 l-0.12 0 l0 7.32 l-1.32 0 l0 -14.16 l1.32 0 z M254.556 5.84 l0 1.2 l-7.34 0 l0 5.04 l6.88 0 l0 1.2 l-6.88 0 l0 5.52 l7.66 0 l0 1.2 l-8.98 0 l0 -14.16 l8.66 0 z M276.20000000000005 12.08 q1.54 0 2.38 -0.69 t0.84 -1.83 t-0.82 -1.82 t-2.44 -0.7 l-2.86 0 l0 5.04 l2.9 0 z M275.8 5.84 q4.9 0 4.94 3.72 q0 3.14 -3.62 3.64 l4.12 6.8 l-1.5 0 l-3.98 -6.72 l-2.46 0 l0 6.72 l-1.32 0 l0 -14.16 l3.82 0 z"></path></g></svg>